# xmcd CD database file
# Copyright (C) 1996 Ti Kan
#
# Track frame offsets:
#  150
#  21297
#  45890
#  62820
#  82440
#  103445
#  122480
#  146205
#  166735
#  182362
#  196817
#
# Disc length: 2882 seconds
#
# Revision: 1
# Processed by: cddbd v1.4b41PL1 Copyright (c) Steve Scherf et al.
# Submitted via: CDWizzard Release:4.12
#
DISCID=950b400b
DTITLE=Colin James - Bad Habits
DYEAR=1900
DGENRE=
TTITLE0=Saviour
TTITLE1=Freedom
TTITLE2=Standin' on the Edge
TTITLE3=Real Stuff
TTITLE4=Better Days
TTITLE5=I Can't Hold Out
TTITLE6=Bad Habits
TTITLE7=Forty-Four
TTITLE8=Walkin' Blues
TTITLE9=Atlanta Moan
TTITLE10=Speechless
EXTD=
EXTT0=
EXTT1=
EXTT2=
EXTT3=
EXTT4=
EXTT5=
EXTT6=
EXTT7=
EXTT8=
EXTT9=
EXTT10=
PLAYORDER=
